<svg width="16" height="16" viewBox="0 0 16 16" fill="none" xmlns="http://www.w3.org/2000/svg">
<path d="M3.5189 0.974121C3.10469 0.974121 2.7689 1.30991 2.7689 1.72412C2.7689 2.13833 3.10469 2.47412 3.5189 2.47412V0.974121ZM14.2922 1.72412H15.0422C15.0422 1.30991 14.7064 0.974121 14.2922 0.974121V1.72412ZM13.5422 12.4961C13.5422 12.9103 13.878 13.2461 14.2922 13.2461C14.7064 13.2461 15.0422 12.9103 15.0422 12.4961H13.5422ZM1.2099 13.7458C0.917011 14.0387 0.917011 14.5136 1.2099 14.8064C1.5028 15.0993 1.97767 15.0993 2.27056 14.8064L1.2099 13.7458ZM14.8066 2.27045C15.0995 1.97756 15.0995 1.50268 14.8066 1.20979C14.5137 0.916897 14.0388 0.916897 13.7459 1.20979L14.8066 2.27045ZM3.5189 2.47412H14.2922V0.974121H3.5189V2.47412ZM13.5422 1.72412V12.4961H15.0422V1.72412H13.5422ZM2.27056 14.8064L14.8066 2.27045L13.7459 1.20979L1.2099 13.7458L2.27056 14.8064Z" fill="#FFDA79"/>
</svg>
