<svg width="18" height="18" viewBox="0 0 18 18" fill="none" xmlns="http://www.w3.org/2000/svg">
<path d="M17.7242 14.6198C17.7242 15.1168 17.3213 15.5198 16.8242 15.5198C16.3272 15.5198 15.9242 15.1168 15.9242 14.6198H17.7242ZM16.8242 1.15479V0.254785C17.3213 0.254785 17.7242 0.657729 17.7242 1.15479L16.8242 1.15479ZM3.35922 2.05479C2.86216 2.05479 2.45922 1.65184 2.45922 1.15479C2.45922 0.657729 2.86216 0.254785 3.35922 0.254785V2.05479ZM1.77058 17.4812C1.41909 17.8327 0.849242 17.8326 0.497789 17.4811C0.146336 17.1297 0.146366 16.5598 0.497856 16.2084L1.77058 17.4812ZM16.1695 0.538355C16.521 0.186901 17.0909 0.186932 17.4423 0.538422C17.7938 0.889913 17.7937 1.45976 17.4422 1.81121L16.1695 0.538355ZM15.9242 14.6198V1.15479H17.7242V14.6198H15.9242ZM16.8242 2.05479H3.35922V0.254785H16.8242V2.05479ZM0.497856 16.2084L16.1695 0.538355L17.4422 1.81121L1.77058 17.4812L0.497856 16.2084Z" fill="#2F2F2F"/>
</svg>
