<svg width="10" height="10" viewBox="0 0 10 10" fill="none" xmlns="http://www.w3.org/2000/svg">
<path d="M2.19956 0.327148C1.78534 0.327148 1.44956 0.662935 1.44956 1.07715C1.44956 1.49136 1.78534 1.82715 2.19956 1.82715V0.327148ZM8.93289 1.07715H9.68289C9.68289 0.662935 9.3471 0.327148 8.93289 0.327148V1.07715ZM8.18289 7.80965C8.18289 8.22386 8.51868 8.55965 8.93289 8.55965C9.3471 8.55965 9.68289 8.22386 9.68289 7.80965H8.18289ZM0.557561 8.39182C0.264667 8.68471 0.264667 9.15958 0.557561 9.45248C0.850454 9.74537 1.32533 9.74537 1.61822 9.45248L0.557561 8.39182ZM9.45322 1.61748C9.74611 1.32459 9.74611 0.849711 9.45322 0.556818C9.16033 0.263925 8.68545 0.263925 8.39256 0.556818L9.45322 1.61748ZM2.19956 1.82715H8.93289V0.327148H2.19956V1.82715ZM8.18289 1.07715V7.80965H9.68289V1.07715H8.18289ZM1.61822 9.45248L9.45322 1.61748L8.39256 0.556818L0.557561 8.39182L1.61822 9.45248Z" fill="#2F2F2F"/>
</svg>
