<svg width="20" height="20" viewBox="0 0 20 20" fill="none" xmlns="http://www.w3.org/2000/svg">
<path d="M15.0107 4.99012L15.0128 4.9914M8.75587 19.2463H11.2448C14.0451 19.2463 15.4452 19.2463 16.5148 18.7013C17.4556 18.222 18.2205 17.4571 18.6999 16.5162C19.2448 15.4467 19.2448 14.0466 19.2448 11.2463V8.75732C19.2448 5.95706 19.2448 4.55693 18.6999 3.48737C18.2205 2.54656 17.4556 1.78166 16.5148 1.30229C15.4452 0.757324 14.0451 0.757324 11.2448 0.757324H8.75586C5.9556 0.757324 4.55547 0.757324 3.48591 1.30229C2.5451 1.78166 1.78019 2.54656 1.30083 3.48737C0.755859 4.55693 0.755859 5.95706 0.755859 8.75733V11.2463C0.755859 14.0466 0.755859 15.4467 1.30083 16.5162C1.78019 17.4571 2.5451 18.222 3.48591 18.7013C4.55547 19.2463 5.9556 19.2463 8.75587 19.2463ZM13.6654 10.0021C13.6654 12.0252 12.0254 13.6652 10.0023 13.6652C7.97921 13.6652 6.33919 12.0252 6.33919 10.0021C6.33919 7.97906 7.97921 6.33904 10.0023 6.33904C12.0254 6.33904 13.6654 7.97906 13.6654 10.0021Z" stroke="#2F2F2F" stroke-width="1.5" stroke-miterlimit="10" stroke-linecap="round" stroke-linejoin="round"/>
</svg>
