<svg width="67" height="17" viewBox="0 0 67 17" fill="none" xmlns="http://www.w3.org/2000/svg">
<path d="M0.927734 16.047H4.57113L11.9178 3.32508L10.0984 0.169922L0.927734 16.047Z" fill="#FFDA79"/>
<path d="M22.908 16.047L13.742 0.169922L11.918 3.32508L19.2646 16.047H22.908Z" fill="#FFDA79"/>
<path d="M11.9179 7.31836L6.87891 16.0468H16.957L11.9179 7.31836Z" fill="#FFDA79"/>
<path d="M30.3882 4.82227L28.0575 10.2114H26.8047L29.7387 3.41281L31.0238 3.4082L33.9855 10.1975H32.7327L30.3882 4.82227Z" fill="black"/>
<path d="M37.4628 9.04156L37.472 3.39453H36.3205L36.3066 10.1885L40.4475 10.1977V9.04617L37.4628 9.04156Z" fill="black"/>
<path d="M46.791 3.56953C47.0858 3.69389 47.3483 3.86432 47.5694 4.0808C47.7905 4.29729 47.9702 4.55062 48.0991 4.8408C48.2281 5.13559 48.2926 5.4442 48.2926 5.77123C48.2926 6.09826 48.2281 6.40686 48.0991 6.70165C47.9702 6.99643 47.7951 7.24977 47.574 7.46625C47.3529 7.68274 47.0904 7.85317 46.7956 7.98214C46.5008 8.1065 46.1784 8.17098 45.8375 8.17098L44.0089 8.17559L44.0135 10.1838H42.862L42.8574 7.02868L45.8375 7.02408C46.0172 7.02408 46.1876 6.99183 46.3442 6.92274C46.5008 6.85826 46.639 6.76614 46.7588 6.65559C46.8785 6.54504 46.9706 6.41147 47.0397 6.25947C47.1088 6.10747 47.1457 5.94625 47.1457 5.78043C47.1457 5.6054 47.1088 5.4442 47.0397 5.2968C46.9706 5.14941 46.8739 5.01583 46.7588 4.90529C46.639 4.79474 46.5008 4.70722 46.3442 4.63813C46.1876 4.57365 46.0172 4.54141 45.8375 4.54141L42.8574 4.54601V3.3945L45.8375 3.3899C46.1738 3.38529 46.4962 3.44517 46.791 3.56953Z" fill="black"/>
<path d="M56.9475 3.3623L56.9613 10.1562H55.8098L55.8052 7.33273L52.2447 8.55334L52.2493 10.1655H51.0978L51.084 3.37152H52.2355L52.2447 7.34195L55.8052 6.12134L55.8006 3.3623H56.9475Z" fill="black"/>
<path d="M62.8648 4.7627L60.5341 10.1518H59.2812L62.2153 3.35324L63.5004 3.34863L66.4621 10.138H65.2092L62.8648 4.7627Z" fill="black"/>
<path d="M26.8008 11.6484H27.2337C27.3443 11.6484 27.4364 11.6853 27.5101 11.759C27.5838 11.8327 27.6253 11.9248 27.6253 12.0353C27.6253 12.1459 27.5884 12.238 27.5147 12.3117C27.441 12.3854 27.3489 12.4223 27.2384 12.4223H26.9988V12.8276H26.8054L26.8008 11.6484ZM26.9942 12.2426H27.2337C27.289 12.2426 27.3397 12.2242 27.3765 12.1827C27.4134 12.1459 27.4318 12.0952 27.4318 12.0353C27.4318 11.9755 27.4134 11.9248 27.3765 11.888C27.3397 11.8511 27.2936 11.8281 27.2337 11.8281H26.9942V12.2426Z" fill="#4F4F4D"/>
<path d="M28.9058 12.8276H28.694L28.4452 12.3992H28.2149V12.8276H28.0215V11.6484H28.4913C28.5972 11.6484 28.6848 11.6853 28.7584 11.759C28.8321 11.8327 28.869 11.9202 28.869 12.0261C28.869 12.0998 28.846 12.1689 28.8045 12.2334C28.7631 12.2979 28.7032 12.3393 28.6341 12.3716L28.9058 12.8276ZM28.4913 11.8281H28.2149V12.2242H28.4913C28.542 12.2242 28.588 12.2058 28.6249 12.1643C28.6617 12.1275 28.6801 12.0814 28.6801 12.0261C28.6801 11.9709 28.6617 11.9248 28.6249 11.888C28.588 11.8465 28.542 11.8281 28.4913 11.8281Z" fill="#4F4F4D"/>
<path d="M30.2553 12.6708C30.1355 12.7906 29.9927 12.8505 29.8223 12.8505C29.6519 12.8505 29.5045 12.7906 29.3847 12.6755C29.265 12.5557 29.2051 12.4129 29.2051 12.2425C29.2051 12.0721 29.265 11.9293 29.3801 11.8095C29.4999 11.6898 29.6427 11.6299 29.8131 11.6299C29.9835 11.6299 30.1263 11.6898 30.2461 11.8095C30.3658 11.9293 30.4257 12.0721 30.4257 12.2425C30.4303 12.4037 30.375 12.5511 30.2553 12.6708ZM29.5229 12.5373C29.6058 12.6156 29.7025 12.657 29.8223 12.657C29.942 12.657 30.0388 12.6156 30.1171 12.5373C30.2 12.4544 30.2368 12.353 30.2368 12.2333C30.2368 12.1135 30.1954 12.0122 30.1125 11.9339C30.0342 11.851 29.9328 11.8141 29.8177 11.8141C29.6979 11.8141 29.6012 11.8556 29.5183 11.9339C29.44 12.0122 29.3985 12.1135 29.3985 12.2379C29.4031 12.3576 29.44 12.459 29.5229 12.5373Z" fill="#4F4F4D"/>
<path d="M30.832 11.6436H31.265C31.3755 11.6436 31.4677 11.6804 31.5414 11.7541C31.6151 11.8278 31.6565 11.9199 31.6565 12.0305C31.6565 12.141 31.6197 12.2331 31.546 12.3068C31.4723 12.3805 31.3802 12.4174 31.2696 12.4174H31.0301V12.8227H30.8366L30.832 11.6436ZM31.0255 12.2377H31.265C31.3203 12.2377 31.3709 12.2193 31.4078 12.1779C31.4446 12.141 31.4631 12.0903 31.4631 12.0305C31.4631 11.9706 31.4446 11.9199 31.4078 11.8831C31.3709 11.8462 31.3249 11.8232 31.265 11.8232H31.0255V12.2377Z" fill="#4F4F4D"/>
<path d="M32.2449 12.3158V12.6336H32.7654V12.8178H32.0469V11.6387H32.7562V11.8229H32.2403V12.1315H32.7101V12.3158H32.2449Z" fill="#4F4F4D"/>
<path d="M34.0504 12.8178H33.8385L33.5898 12.3895H33.3595V12.8178H33.166V11.6387H33.6358C33.7418 11.6387 33.8293 11.6755 33.903 11.7492C33.9767 11.8229 34.0135 11.9104 34.0135 12.0164C34.0135 12.0901 33.9905 12.1592 33.949 12.2236C33.9076 12.2881 33.8477 12.3296 33.7786 12.3618L34.0504 12.8178ZM33.6358 11.8183H33.3595V12.2144H33.6358C33.6865 12.2144 33.7326 12.196 33.7694 12.1546C33.8063 12.1177 33.8247 12.0716 33.8247 12.0164C33.8247 11.9611 33.8063 11.915 33.7694 11.8782C33.7326 11.8367 33.6865 11.8183 33.6358 11.8183Z" fill="#4F4F4D"/>
<path d="M34.2988 11.6348H35.1602V11.819H34.8285V12.8139H34.6351V11.819H34.3034L34.2988 11.6348Z" fill="#4F4F4D"/>
<path d="M36.2109 11.6348H36.432L36.0221 12.3487V12.8185H35.8286V12.3487L35.4141 11.6394H35.6352L35.9253 12.1599L36.2109 11.6348Z" fill="#4F4F4D"/>
<path d="M37.4043 11.6621H37.8695C38.0307 11.6621 38.1643 11.7174 38.2748 11.8325C38.3808 11.9477 38.4361 12.0859 38.4361 12.2517C38.4361 12.4175 38.3808 12.5557 38.2748 12.6708C38.1689 12.786 38.0353 12.8413 37.8741 12.8413H37.4089L37.4043 11.6621ZM37.5978 12.657H37.8695C37.9801 12.657 38.0722 12.6202 38.1413 12.5419C38.2104 12.4636 38.2472 12.3668 38.2472 12.2517C38.2472 12.1365 38.2104 12.0398 38.1413 11.9615C38.0722 11.8832 37.9801 11.8464 37.8695 11.8464H37.5978V12.657Z" fill="#4F4F4D"/>
<path d="M39.0262 12.3392V12.657H39.5467V12.8413H38.8281V11.6621H39.5375V11.8464H39.0216V12.155H39.4914V12.3392H39.0262Z" fill="#4F4F4D"/>
<path d="M40.4801 12.8371H40.2498L39.8398 11.6579H40.0517L40.3649 12.6022L40.6782 11.6533H40.89L40.4801 12.8371Z" fill="#4F4F4D"/>
<path d="M41.4344 12.3343V12.6521H41.9549V12.8364H41.2363V11.6572H41.9457V11.8415H41.4298V12.1501H41.8996V12.3343H41.4344Z" fill="#4F4F4D"/>
<path d="M42.5489 11.6533V12.6482H43.028V12.8325H42.3555V11.6533H42.5489Z" fill="#4F4F4D"/>
<path d="M44.3099 12.6757C44.1902 12.7955 44.0474 12.8554 43.877 12.8554C43.7066 12.8554 43.5592 12.7955 43.4394 12.6803C43.3196 12.5606 43.2598 12.4178 43.2598 12.2474C43.2598 12.0769 43.3196 11.9342 43.4348 11.8144C43.5545 11.6946 43.6973 11.6348 43.8678 11.6348C44.0382 11.6348 44.181 11.6946 44.3007 11.8144C44.4205 11.9342 44.4804 12.0769 44.4804 12.2474C44.4896 12.4132 44.4297 12.556 44.3099 12.6757ZM43.5776 12.5468C43.6605 12.6251 43.7572 12.6665 43.877 12.6665C43.9967 12.6665 44.0935 12.6251 44.1718 12.5468C44.2547 12.4639 44.2915 12.3625 44.2915 12.2428C44.2915 12.123 44.2501 12.0217 44.1672 11.9434C44.0889 11.8605 43.9875 11.8236 43.8724 11.8236C43.7526 11.8236 43.6559 11.8651 43.573 11.948C43.4947 12.0263 43.4532 12.1276 43.4532 12.252C43.4578 12.3625 43.4993 12.4639 43.5776 12.5468Z" fill="#4F4F4D"/>
<path d="M44.8848 11.6484H45.3177C45.4283 11.6484 45.5204 11.6853 45.5941 11.759C45.6678 11.8327 45.7092 11.9248 45.7092 12.0353C45.7092 12.1459 45.6724 12.238 45.5987 12.3117C45.525 12.3854 45.4329 12.4223 45.3223 12.4223H45.0828V12.8276H44.8894L44.8848 11.6484ZM45.0782 12.2426H45.3177C45.373 12.2426 45.4237 12.2242 45.4605 12.1827C45.4974 12.1459 45.5158 12.0952 45.5158 12.0353C45.5158 11.9755 45.4974 11.9248 45.4605 11.888C45.4237 11.8511 45.3776 11.8281 45.3177 11.8281H45.0782V12.2426Z" fill="#4F4F4D"/>
<path d="M47.0267 11.6484H47.234V12.8276H47.0405V11.9847L46.6812 12.5789H46.6582L46.2989 11.9847V12.8276H46.1055V11.6484H46.3127L46.6674 12.238L47.0267 11.6484Z" fill="#4F4F4D"/>
<path d="M47.8875 12.3206V12.6385H48.408V12.8227H47.6895V11.6436H48.3988V11.8278H47.8829V12.1364H48.3527V12.3206H47.8875Z" fill="#4F4F4D"/>
<path d="M49.5179 12.4411V11.6396H49.7114V12.8188H49.5594L49.0021 12.0173V12.8188H48.8086V11.6396H48.9606L49.5179 12.4411Z" fill="#4F4F4D"/>
<path d="M50.0762 11.6396H50.9375V11.8239H50.6059V12.8188H50.4124V11.8239H50.0808L50.0762 11.6396Z" fill="#4F4F4D"/>
<path d="M51.6611 12.8414C51.5459 12.8414 51.4492 12.8184 51.3709 12.7631C51.2926 12.7124 51.2373 12.6434 51.2051 12.5512L51.3709 12.4545C51.417 12.5881 51.5183 12.6526 51.6657 12.6526C51.7394 12.6526 51.79 12.6388 51.8269 12.6111C51.8637 12.5835 51.8822 12.5466 51.8822 12.496C51.8822 12.4499 51.8637 12.4131 51.8223 12.3854C51.7808 12.3578 51.7117 12.3301 51.615 12.3025C51.5137 12.2703 51.4308 12.238 51.3663 12.1966C51.288 12.1413 51.2511 12.063 51.2511 11.9571C51.2511 11.8511 51.288 11.7682 51.3617 11.7083C51.4354 11.6485 51.5229 11.6162 51.6288 11.6162C51.721 11.6162 51.8039 11.6392 51.8776 11.6853C51.9513 11.7314 52.0019 11.7958 52.0434 11.8788L51.8822 11.9755C51.8315 11.8649 51.7486 11.8097 51.6334 11.8097C51.5782 11.8097 51.5321 11.8235 51.4999 11.8511C51.4676 11.8788 51.4492 11.9156 51.4492 11.9571C51.4492 12.0031 51.4676 12.0354 51.4999 12.0584C51.5321 12.0814 51.5966 12.1091 51.6887 12.1367C51.744 12.1551 51.7762 12.1689 51.7854 12.1689C51.7993 12.1735 51.8315 12.1828 51.873 12.2012C51.9098 12.215 51.9374 12.2334 51.9605 12.2472C52.048 12.3163 52.0894 12.3946 52.0802 12.4914C52.0802 12.5973 52.0434 12.6848 51.9651 12.7447C51.8914 12.8092 51.79 12.8414 51.6611 12.8414Z" fill="#4F4F4D"/>
<path d="M54.1378 12.8461H53.9305L53.8476 12.6066H53.3456L53.2627 12.8461H53.0508L53.4745 11.667H53.7094L54.1378 12.8461ZM53.5897 11.8927L53.4054 12.427H53.7785L53.5897 11.8927Z" fill="#4F4F4D"/>
<path d="M55.1918 12.4636V11.6621H55.3852V12.8413H55.2332L54.6759 12.0398V12.8413H54.4824V11.6621H54.6344L55.1918 12.4636Z" fill="#4F4F4D"/>
<path d="M55.8418 11.6621H56.307C56.4682 11.6621 56.6018 11.7174 56.7123 11.8325C56.8183 11.9477 56.8736 12.0859 56.8736 12.2517C56.8736 12.4175 56.8183 12.5557 56.7123 12.6708C56.6064 12.786 56.4728 12.8413 56.3116 12.8413H55.8464L55.8418 11.6621ZM56.0399 12.657H56.3116C56.4222 12.657 56.5143 12.6202 56.5834 12.5419C56.6525 12.4636 56.6893 12.3668 56.6893 12.2517C56.6893 12.1365 56.6525 12.0398 56.5834 11.9615C56.5143 11.8832 56.4222 11.8464 56.3116 11.8464H56.0399V12.657Z" fill="#4F4F4D"/>
<path d="M58.1075 11.6582V12.6531H58.5866V12.8374H57.9141V11.6582H58.1075Z" fill="#4F4F4D"/>
<path d="M59.1492 12.3353V12.6531H59.6697V12.8374H58.9512V11.6582H59.6605V11.8424H59.1446V12.151H59.6144V12.3353H59.1492Z" fill="#4F4F4D"/>
<path d="M59.9785 11.6533H60.8399V11.8376H60.5082V12.8325H60.3148V11.8376H59.9831L59.9785 11.6533Z" fill="#4F4F4D"/>
<path d="M61.1113 11.6533H61.9727V11.8376H61.641V12.8325H61.4476V11.8376H61.1159L61.1113 11.6533Z" fill="#4F4F4D"/>
<path d="M62.3418 12.8325V11.6533H62.5353V12.8325H62.3418Z" fill="#4F4F4D"/>
<path d="M63.6996 12.4499V11.6484H63.893V12.8276H63.741L63.1837 12.0261V12.8276H62.9902V11.6484H63.1422L63.6996 12.4499Z" fill="#4F4F4D"/>
<path d="M64.9109 12.2156H65.5005V12.2985C65.5005 12.4597 65.4498 12.5933 65.3392 12.6946C65.2333 12.7959 65.0951 12.8466 64.9201 12.8466C64.7359 12.8466 64.5885 12.7867 64.4687 12.6716C64.3489 12.5518 64.2891 12.409 64.2891 12.2386C64.2891 12.0682 64.3489 11.9254 64.4641 11.8056C64.5839 11.6859 64.7312 11.626 64.9063 11.626C65.0168 11.626 65.1135 11.649 65.2057 11.6997C65.2978 11.7503 65.3669 11.8194 65.4176 11.9023L65.2517 11.9991C65.2195 11.9438 65.1734 11.8977 65.1136 11.8609C65.0537 11.8286 64.9846 11.8102 64.9063 11.8102C64.7819 11.8102 64.6806 11.8517 64.6023 11.93C64.524 12.0129 64.4825 12.1142 64.4825 12.234C64.4825 12.3537 64.524 12.4551 64.6023 12.5334C64.6852 12.6117 64.7911 12.6531 64.9201 12.6531C65.0214 12.6531 65.1089 12.6301 65.1734 12.5794C65.2379 12.5288 65.2794 12.4643 65.2978 12.3814H64.9017L64.9109 12.2156Z" fill="#4F4F4D"/>
<path d="M66.2509 12.8463C66.1358 12.8463 66.039 12.8233 65.9607 12.768C65.8824 12.7173 65.8272 12.6482 65.7949 12.5561L65.9607 12.4594C66.0068 12.593 66.1081 12.6575 66.2555 12.6575C66.3292 12.6575 66.3799 12.6436 66.4213 12.616C66.4582 12.5884 66.4766 12.5515 66.4766 12.5009C66.4766 12.4548 66.4582 12.4179 66.4167 12.3903C66.3753 12.3627 66.3062 12.335 66.2095 12.3074C66.1081 12.2752 66.0252 12.2429 65.9607 12.2015C65.8824 12.1462 65.8456 12.0679 65.8456 11.9619C65.8456 11.856 65.8824 11.7731 65.9561 11.7132C66.0298 11.6533 66.1173 11.6211 66.2233 11.6211C66.3154 11.6211 66.3983 11.6441 66.472 11.6902C66.5411 11.7362 66.5964 11.8007 66.6378 11.8836L66.4766 11.9804C66.426 11.8698 66.343 11.8145 66.2279 11.8145C66.1726 11.8145 66.1266 11.8284 66.0943 11.856C66.0621 11.8836 66.0437 11.9159 66.0437 11.9619C66.0437 12.008 66.0621 12.0402 66.0943 12.0679C66.1266 12.0909 66.191 12.1185 66.2832 12.1462C66.3384 12.1646 66.3707 12.1784 66.3799 12.1784C66.3937 12.183 66.426 12.1922 66.4674 12.2107C66.5043 12.2245 66.5319 12.2429 66.5549 12.2567C66.6424 12.3258 66.6839 12.4041 66.6747 12.5009C66.6747 12.6068 66.6378 12.6943 66.5595 12.7542C66.4766 12.8141 66.3753 12.8463 66.2509 12.8463Z" fill="#4F4F4D"/>
</svg>
