<svg width="48" height="48" viewBox="0 0 48 48" fill="none" xmlns="http://www.w3.org/2000/svg">
<circle cx="24" cy="24" r="23.5" stroke="#FFDA79"/>
<path d="M33 28.42V31.956C33.0001 32.2092 32.9042 32.453 32.7316 32.6382C32.559 32.8234 32.3226 32.9363 32.07 32.954C31.633 32.984 31.276 33 31 33C22.163 33 15 25.837 15 17C15 16.724 15.015 16.367 15.046 15.93C15.0637 15.6774 15.1766 15.441 15.3618 15.2684C15.547 15.0958 15.7908 14.9999 16.044 15H19.58C19.704 14.9999 19.8237 15.0459 19.9157 15.129C20.0078 15.2122 20.0656 15.3266 20.078 15.45C20.101 15.68 20.122 15.863 20.142 16.002C20.3407 17.3889 20.748 18.7378 21.35 20.003C21.445 20.203 21.383 20.442 21.203 20.57L19.045 22.112C20.3645 25.1865 22.8145 27.6365 25.889 28.956L27.429 26.802C27.4919 26.714 27.5838 26.6509 27.6885 26.6237C27.7932 26.5964 27.9042 26.6068 28.002 26.653C29.267 27.2539 30.6156 27.6601 32.002 27.858C32.141 27.878 32.324 27.9 32.552 27.922C32.6752 27.9346 32.7894 27.9926 32.8724 28.0846C32.9553 28.1766 33.0012 28.2961 33.001 28.42H33Z" fill="#FFDA79"/>
</svg>
